<svg version="1.1" id="Layer_1" xmlns="http://www.w3.org/2000/svg" xmlns:xlink="http://www.w3.org/1999/xlink" x="0px" y="0px"
	 width="100%" viewBox="0 0 400 288" enable-background="new 0 0 400 288" xml:space="preserve">
<path fill="#000000" opacity="1.000000" stroke="none" 
	d="
M273.855011,119.829079 
	C284.004791,122.382454 292.514618,127.030273 299.644379,134.154160 
	C300.463562,134.972672 301.373230,135.728760 302.336304,136.370712 
	C310.790131,142.005630 311.216766,144.199127 304.566406,151.960159 
	C298.350952,159.213669 291.481720,165.801682 282.522552,169.631287 
	C278.838013,171.206268 278.552521,173.264023 280.892151,176.109344 
	C288.882660,185.827026 289.861908,198.141541 293.214386,209.556747 
	C294.523865,214.015701 291.776825,216.581192 287.761414,217.536926 
	C273.099518,221.026749 258.487701,222.332245 244.219437,215.721725 
	C243.045227,215.177719 241.755981,214.882004 239.998779,214.297485 
	C238.556442,219.191544 239.293304,224.056808 238.451172,228.719757 
	C237.207428,235.606415 234.486252,241.729645 231.059387,247.650269 
	C229.561493,250.238190 228.077820,252.769836 227.019196,255.619171 
	C224.952438,261.181854 221.292633,262.679352 215.919952,259.932434 
	C201.735962,252.680496 190.101349,242.872803 184.662964,227.207611 
	C184.229309,225.958496 183.872482,224.643600 182.539536,223.845917 
	C180.563095,223.855438 179.939575,225.630112 178.968140,226.853668 
	C171.680023,236.033371 162.320816,242.034897 151.113861,245.298462 
	C148.571274,246.038879 146.098816,247.021637 143.598450,247.905243 
	C137.029053,250.226761 134.985703,249.484558 132.425247,243.030807 
	C128.625015,233.452225 127.189804,223.493729 128.199677,213.180557 
	C128.625381,208.833115 129.671890,204.644150 130.912582,200.506653 
	C131.738831,197.751282 131.147400,196.176270 128.173828,196.159973 
	C114.371376,196.084290 102.974731,189.542709 91.603355,182.806290 
	C84.999153,178.893951 83.735168,176.517044 87.421448,169.917587 
	C95.465225,155.516968 106.731163,144.606079 122.963760,139.685577 
	C124.530579,139.210632 126.260719,139.019989 127.205711,137.444336 
	C127.391144,135.763123 126.178810,135.060959 125.132484,134.251266 
	C116.278099,127.399521 110.350006,118.582458 107.274918,107.815796 
	C106.088715,103.662598 104.696541,99.568092 103.518272,95.412804 
	C101.821205,89.427925 103.086739,86.805092 109.074333,84.875862 
	C123.760239,80.143967 138.445831,79.551300 153.036926,85.419777 
	C154.682190,86.081497 156.245743,87.301247 158.679794,86.516739 
	C158.971085,80.052559 159.655853,73.458443 161.358765,67.048271 
	C163.887405,57.529804 170.318069,50.048592 174.971252,41.645386 
	C177.308762,37.424076 181.151642,39.082008 184.197235,40.787319 
	C196.684662,47.779369 206.903549,57.019062 212.568466,70.565605 
	C215.340393,77.194160 216.287048,77.312935 221.409714,72.622009 
	C229.099670,65.580162 238.111191,61.144382 248.530014,59.968620 
	C251.606796,59.621407 254.223724,58.159077 257.090515,57.332542 
	C261.280945,56.124386 263.937988,57.628647 265.243958,61.613110 
	C270.971802,79.088608 269.900085,95.961594 260.567749,112.040520 
	C257.307495,117.657768 257.724884,118.416344 264.030518,118.694275 
	C267.176697,118.832947 270.304688,119.383949 273.855011,119.829079 
z"/>
</svg>